<svg data-v-0dd9719b="" version="1.0" xmlns="http://www.w3.org/2000/svg" xmlns:xlink="http://www.w3.org/1999/xlink" width="100%" height="100%" viewBox="0 0 340.000000 250.000000" preserveAspectRatio="xMidYMid meet" color-interpolation-filters="sRGB" style="margin: auto;"> <rect data-v-0dd9719b="" x="0" y="0" width="100%" height="100%" fill="#fff" fill-opacity="1" class="background"></rect> <rect data-v-0dd9719b="" x="0" y="0" width="100%" height="100%" fill="url(#watermark)" fill-opacity="1" class="watermarklayer"></rect> <g data-v-0dd9719b="" fill="#f46606" class="icon-text-wrapper icon-svg-group iconsvg" transform="translate(57.160377502441406,92.89229583740234)"><g class="iconsvg-imagesvg" transform="translate(0,0)"><g><rect fill="#f46606" fill-opacity="0" stroke-width="2" x="0" y="0" width="58" height="64.21540948395169" class="image-rect"></rect> <svg x="0" y="0" width="58" height="64.21540948395169" filtersec="colorsb9114226250" class="image-svg-svg primary" style="overflow: visible;"><svg xmlns="http://www.w3.org/2000/svg" viewBox="-0.27249908447265625 9.999549865722656 863.4775390625 956.0090942382812"><path fill="#F46606" d="M678.45 529.18c-58.66-11.22-97.12-67.87-85.89-126.53l10.73-56.06c28.76-150.33-65.64-300.34-215.61-330.93C234.87-15.5 86.52 85.2 59.08 238.71c-26.94 150.66 77.63 293.78 227.95 322.55l56.06 10.73c58.66 11.22 97.11 67.87 85.89 126.53-22.94 119.87 52.54 239.86 172.29 263.34 119.87 23.5 235.88-55.24 258.3-175.32 22.4-119.98-61.26-234.42-181.12-257.36z"></path><path fill="#444444" d="M44.87 702.89c-60.19 60.19-60.19 157.78 0 217.97 60.18 60.19 157.77 60.19 217.96 0 60.18-60.19 60.18-157.77 0-217.97-60.19-60.18-157.78-60.18-217.96 0z"></path></svg></svg> <!----></g></g> <g transform="translate(59,9.190376281738281)"><g data-gra="path-name" fill-rule="" class="tp-name iconsvg-namesvg" transform="translate(0,0)"><g transform="scale(1)"><g><path d="M6.67-23.34L6.67-23.34Q6.44-23.47 5.74-23.94 5.05-24.4 4.65-24.64L4.65-24.64Q2.79-25.63 4.08-27.33L4.08-27.33Q5.05-28.65 6.47-27.96L6.47-27.96Q7.84-27.29 9.33-26.3L9.33-26.3Q10.72-25.27 9.6-23.77L9.6-23.77Q8.3-22.05 6.67-23.34ZM6.51-18.03L6.51-18.03Q6.67-17.93 7.67-17.3L7.67-17.3Q9.03-16.2 7.97-14.81L7.97-14.81Q6.64-13.05 5.08-14.31L5.08-14.31Q4.15-14.91 3.15-15.51L3.15-15.51Q1.23-16.5 2.49-18.23L2.49-18.23Q3.39-19.49 4.75-18.89L4.75-18.89Q5.91-18.36 6.51-18.03ZM2.76-1.29L2.76-1.29Q4.55-4.88 6.01-8.53L6.01-8.53Q6.81-10.66 8.7-9.33L8.7-9.33Q10.06-8.43 9.5-6.87L9.5-6.87Q7.9-2.69 6.41 0.56L6.41 0.56Q5.51 2.56 3.62 1.39L3.62 1.39Q1.93 0.33 2.76-1.29ZM26.23-9.03L21.55-9.03Q22.74-8.3 24.14-7.11L24.14-7.11Q24.67-6.57 24.07-6.01L24.07-6.01 23.18-5.21 25.93-5.21Q26.16-7.87 26.23-9.03L26.23-9.03ZM16.37-5.21L16.37-5.21 21.78-5.21Q20.88-6.04 19.92-6.77L19.92-6.77Q18.56-7.7 19.89-9.03L19.89-9.03 16.8-9.03Q16.57-6.64 16.37-5.21ZM17.17-12.45L21.78-12.45Q20.75-13.31 19.49-14.11L19.49-14.11Q18.79-14.51 19.42-15.07L19.42-15.07 20.29-15.9 17.5-15.9Q17.46-15.37 17.35-14.21 17.23-13.05 17.17-12.45L17.17-12.45ZM25.67-15.9L21.75-15.9Q23.34-14.97 24.3-14.14L24.3-14.14Q24.84-13.65 24.3-13.12L24.3-13.12 23.61-12.45 26.4-12.45Q26.46-14.11 26.46-15.04L26.46-15.04Q26.5-15.9 25.67-15.9L25.67-15.9ZM30.55-21.35L30.55-21.35 16-21.35Q15.84-20.98 14.84-19.16L14.84-19.16 28.02-19.16Q30.25-19.16 30.15-16.17L30.15-16.17Q30.12-15.21 30.07-13.93 30.02-12.65 30.02-12.45L30.02-12.45 31.24-12.45Q32.94-12.45 32.94-10.76L32.94-10.76Q32.94-9.03 31.24-9.03L31.24-9.03 29.88-9.03Q29.65-5.48 29.62-5.21L29.62-5.21 30.85-5.21Q32.51-5.21 32.51-3.52 32.51-1.83 30.85-1.83L30.85-1.83 29.25-1.83Q28.92 0.5 28.16 1.51 27.39 2.52 25.63 2.79L25.63 2.79Q24.87 2.92 23.28 2.92L23.28 2.92Q21.45 2.86 21.08 1.56L21.08 1.56Q20.75 0.46 21.3 0.07 21.85-0.33 23.18-0.27L23.18-0.27 23.87-0.27Q25.13-0.27 25.47-1.83L25.47-1.83 15.9-1.83 15.9-1.76Q15.67-0.2 14.01-0.3L14.01-0.3Q12.98-0.37 12.55-0.76 12.12-1.16 12.25-2.09L12.25-2.09Q13.02-7.8 13.15-9.03L13.15-9.03 11.55-9.03Q9.86-9.03 9.86-10.76L9.86-10.76Q9.86-12.45 11.55-12.45L11.55-12.45 13.55-12.45Q13.81-15.01 14.04-17.8L14.04-17.8Q13.95-17.66 13.78-17.4 13.61-17.13 13.55-17.03L13.55-17.03Q12.85-16.14 12.17-16.04 11.49-15.94 10.59-16.63L10.59-16.63Q9.73-17.4 9.68-18.05 9.63-18.69 10.39-19.56L10.39-19.56Q12.62-22.51 14.04-26.83L14.04-26.83Q14.61-28.82 16.54-28.42L16.54-28.42Q18.53-27.99 17.93-25.96L17.93-25.96 17.53-24.97 30.55-24.97Q32.34-24.97 32.34-23.14L32.34-23.14Q32.34-21.35 30.55-21.35ZM64.02-22.21L64.02-22.21 52.73-22.21Q52.63-21.35 52.29-19.66L52.29-19.66 62.42-19.66Q63.42-19.66 64.03-19.04 64.65-18.43 64.65-17.43L64.65-17.43 64.65-1.2Q64.65 0.27 64.23 1.06 63.82 1.86 62.79 2.29L62.79 2.29Q61.59 2.76 58.77 2.82L58.77 2.82Q56.74 2.89 56.25 1.49L56.25 1.49Q55.85 0.4 56.46-0.07 57.08-0.53 58.44-0.46L58.44-0.46Q58.77-0.46 59.2-0.48 59.63-0.5 59.7-0.5L59.7-0.5Q60.5-0.5 60.5-1.23L60.5-1.23 60.5-15.14Q60.5-15.94 59.67-15.94L59.67-15.94 54.05-15.94 55.85-15.57Q57.41-15.24 56.84-13.75L56.84-13.75Q56.41-12.52 56.05-11.69L56.05-11.69 56.91-11.69Q58.47-11.69 58.47-10.13 58.47-8.57 56.91-8.57L56.91-8.57 52.76-8.57 52.76-6.34 57.61-6.34Q59.23-6.34 59.23-4.71 59.23-3.09 57.61-3.09L57.61-3.09 52.76-3.09 52.76 0.07Q52.76 1.93 50.9 1.93 49.04 1.93 49.04 0.07L49.04 0.07 49.04-3.09 44.39-3.09Q42.77-3.09 42.77-4.71 42.77-6.34 44.39-6.34L44.39-6.34 49.04-6.34 49.04-8.57 45.06-8.57Q43.5-8.57 43.5-10.13 43.5-11.69 45.06-11.69L45.06-11.69 46.09-11.69Q45.82-12.65 45.36-13.78L45.36-13.78Q44.82-15.14 46.22-15.47L46.22-15.47Q47.02-15.74 47.7-15.34 48.38-14.94 48.68-14.11L48.68-14.11Q49.04-13.28 48.81-12.62 48.58-11.95 47.75-11.72L47.75-11.72 47.68-11.69 52.59-11.69Q53.52-14.31 53.86-15.94L53.86-15.94 42.27-15.94Q41.44-15.94 41.44-15.14L41.44-15.14 41.44 0.86Q41.44 2.86 39.45 2.86L39.45 2.86Q37.39 2.86 37.39 0.86L37.39 0.86 37.39-17.43Q37.39-18.43 38-19.04 38.62-19.66 39.61-19.66L39.61-19.66 48.31-19.66Q48.58-21.38 48.68-22.21L48.68-22.21 37.98-22.21Q36.09-22.21 36.09-24.11L36.09-24.11Q36.09-25.96 37.98-25.96L37.98-25.96 49.11-25.96Q49.11-26.06 49.12-26.28 49.14-26.5 49.14-26.6L49.14-26.6Q49.27-28.82 51.46-28.62L51.46-28.62Q53.69-28.42 53.39-26.16L53.39-26.16Q53.39-26.13 53.37-26.06 53.36-26 53.36-25.96L53.36-25.96 64.02-25.96Q65.91-25.96 65.91-24.11L65.91-24.11Q65.91-22.21 64.02-22.21ZM95.69-27.23L95.69-27.23Q97.32-25.9 98.41-24.7L98.41-24.7Q98.98-24.01 98.9-23.49 98.81-22.98 98.08-22.38L98.08-22.38Q97.32-21.75 96.72-21.76 96.12-21.78 95.53-22.51L95.53-22.51Q94.4-23.77 93.43-24.6L93.43-24.6Q91.91-25.96 93.47-27.16L93.47-27.16Q94.6-27.99 95.69-27.23ZM77.4-20.95L77.4-20.95 77.4 1.06Q77.4 2.99 75.44 2.99 73.48 2.99 73.48 1.06L73.48 1.06 73.48-14.44Q73.35-14.28 73.11-13.96 72.88-13.65 72.85-13.61L72.85-13.61Q71.92-12.42 71.15-12.45 70.39-12.48 69.69-13.78L69.69-13.78Q68.83-15.51 70.03-16.87L70.03-16.87Q73.54-21.12 75.84-26.83L75.84-26.83Q76.5-28.69 78.36-28.12L78.36-28.12Q80.22-27.53 79.55-25.67L79.55-25.67Q78.46-22.91 77.4-20.95ZM98.25-17.23L98.25-17.23 90.31-17.23Q90.28-16.37 90.15-15.17L90.15-15.17 91.21-15.17Q91.61-15.17 91.86-14.92 92.11-14.68 92.11-14.28L92.11-14.28 92.11-2.86Q92.11-1.93 92.3-1.68 92.5-1.43 93.27-1.43L93.27-1.43 95.99-1.43Q96.69-1.43 96.89-2.32L96.89-2.32Q97.02-3.98 97.67-5.08 98.31-6.18 99.48-5.64L99.48-5.64Q100.17-5.35 100.41-4.25 100.64-3.15 100.54-2.06L100.54-2.06Q100.11 0.4 99.18 1.36 98.25 2.32 96.36 2.32L96.36 2.32 92.6 2.32Q89.95 2.32 89.03 1.23 88.12 0.13 88.12-2.82L88.12-2.82 88.12-6.18Q86.36-1.53 82.61 1.69L82.61 1.69Q80.72 3.05 79.42 1.66L79.42 1.66Q77.83-0.07 80.22-1.83L80.22-1.83Q83.24-4.48 84.6-8.27 85.96-12.05 86.36-17.23L86.36-17.23 80.85-17.23Q78.96-17.23 78.96-19.16L78.96-19.16Q78.96-21.05 80.85-21.05L80.85-21.05 86.53-21.05Q86.59-24.5 86.59-26.43L86.59-26.43Q86.59-28.46 88.62-28.46L88.62-28.46Q90.58-28.46 90.58-26.46L90.58-26.46Q90.51-23.21 90.48-21.05L90.48-21.05 98.25-21.05Q100.17-21.05 100.17-19.16L100.17-19.16Q100.17-17.23 98.25-17.23ZM109.17-16.5L109.17-16.5 118.5-16.5Q116.71-19.09 113.42-22.88L113.42-22.88Q111.33-19.52 108.94-17.07L108.94-17.07Q108.38-16.5 109.17-16.5ZM117.34 2.39L117.34 2.39 111.93 2.39Q108.94 2.39 107.84 1.34 106.75 0.3 106.75-2.62L106.75-2.62 106.75-15.04Q106.71-15.01 106.68-15.01L106.68-15.01Q105.72-14.28 104.76-15.24L104.76-15.24Q102.86-17.2 104.82-18.73L104.82-18.73Q109.04-22.28 111.5-27.26L111.5-27.26Q112.19-28.79 114.19-28.22L114.19-28.22Q115.85-27.72 115.25-26.33L115.25-26.33Q115.21-26.3 115.21-26.26L115.21-26.26Q119.5-21.71 121.52-18.99L121.52-18.99Q121.89-18.53 121.77-17.76 121.66-17 121.03-16.4L121.03-16.4 119.9-15.27 119.9-15.14Q119.7-10.82 119.4-8.8 119.1-6.77 118.5-6.08L118.5-6.08Q117.9-5.28 117.02-5.05 116.14-4.81 114.58-4.81L114.58-4.81Q113.65-4.81 113.07-5.28 112.49-5.74 112.36-6.51L112.36-6.51Q111.96-7.24 112.28-7.7 112.59-8.17 113.59-8.1L113.59-8.1 114.29-8.1Q114.92-8.1 115.21-8.47L115.21-8.47Q115.71-9.06 115.98-13.02L115.98-13.02 110.6-13.02 110.6-2.66Q110.6-1.63 110.92-1.34 111.23-1.06 112.39-1.06L112.39-1.06 117.01-1.06Q117.87-1.06 118.17-1.63L118.17-1.63Q118.4-3.12 119.07-4 119.73-4.88 120.83-4.42L120.83-4.42Q122.22-3.88 121.82-1.16L121.82-1.16Q121.39 0.8 120.38 1.59 119.37 2.39 117.34 2.39ZM122.92-7.6L122.92-7.6 122.92-23.01Q122.92-24.94 124.84-24.94L124.84-24.94Q126.74-24.94 126.74-23.01L126.74-23.01 126.74-7.6Q126.74-5.71 124.84-5.71L124.84-5.71Q122.92-5.71 122.92-7.6ZM129.33-1.79L129.33-1.79 129.33-26.16Q129.33-28.16 131.35-28.16L131.35-28.16Q133.31-28.16 133.31-26.16L133.31-26.16 133.31-1.79Q133.31-0.03 132.9 0.85 132.48 1.73 131.42 2.16L131.42 2.16Q130.16 2.76 127.1 2.86L127.1 2.86Q124.71 2.92 124.18 1.33L124.18 1.33Q123.78 0.1 124.5-0.45 125.21-1 126.67-0.93L126.67-0.93 128.43-0.93Q129.33-0.96 129.33-1.79ZM142.34-17.93L142.34-17.93 148.95-17.93 147.75-18.2Q146.76-18.43 147.09-19.29L147.09-19.29Q147.72-20.85 147.95-22.15L147.95-22.15 142.91-22.15Q143.37-21.25 143.7-19.92L143.7-19.92Q144.04-18.36 142.34-17.93ZM143.67-11.95L143.67-14.58 139.32-14.58Q137.66-14.58 137.66-16.24L137.66-16.24Q137.66-17.93 139.32-17.93L139.32-17.93 140.75-17.93Q140.62-18.96 140.35-19.89L140.35-19.89Q140.08-20.72 140.38-21.32 140.68-21.91 141.51-22.08L141.51-22.08 141.78-22.15 139.65-22.15Q137.99-22.15 137.99-23.81L137.99-23.81Q137.99-25.43 139.65-25.43L139.65-25.43 143.67-25.43 143.67-26.6Q143.67-28.52 145.63-28.52L145.63-28.52Q147.55-28.52 147.55-26.6L147.55-26.6 147.55-25.43 151.51-25.43Q153.13-25.43 153.13-23.81L153.13-23.81Q153.13-22.15 151.51-22.15L151.51-22.15 149.68-22.15 150.71-21.91Q151.61-21.75 151.24-20.85L151.24-20.85Q150.88-19.86 150.01-17.93L150.01-17.93 151.74-17.93Q153.4-17.93 153.4-16.24L153.4-16.24Q153.4-14.58 151.74-14.58L151.74-14.58 147.55-14.58 147.55-11.95 151.41-11.95Q153.1-11.95 153.1-10.26 153.1-8.57 151.41-8.57L151.41-8.57 147.55-8.57 147.55-8.3Q148.48-7.67 151.14-5.54L151.14-5.54Q151.84-4.95 151.85-4.43 151.87-3.92 151.24-3.22L151.24-3.22Q150.58-2.39 150-2.37 149.41-2.36 148.72-3.15L148.72-3.15Q148.55-3.32 148.15-3.74 147.75-4.15 147.55-4.35L147.55-4.35 147.55 0.96Q147.55 2.89 145.63 2.89L145.63 2.89Q143.67 2.89 143.67 0.96L143.67 0.96 143.67-3.95Q142.21-1.86 140.75-0.4L140.75-0.4Q140.02 0.3 139.45 0.28 138.89 0.27 138.22-0.46L138.22-0.46Q137.46-1.33 137.53-1.96 137.59-2.59 138.52-3.32L138.52-3.32Q141.05-5.58 142.87-8.57L142.87-8.57 139.45-8.57Q137.76-8.57 137.76-10.26 137.76-11.95 139.45-11.95L139.45-11.95 143.67-11.95ZM158.18-22.38L158.18-17.6 166.81-17.6Q168.67-17.6 168.67-15.74 168.67-13.88 166.81-13.88L166.81-13.88 165.48-13.88 165.48 0.83Q165.48 2.76 163.53 2.76L163.53 2.76Q161.6 2.76 161.6 0.83L161.6 0.83 161.6-13.88 158.18-13.88Q158.11-3.95 154.36 1.36L154.36 1.36Q153 3.02 151.71 1.46L151.71 1.46 151.64 1.39Q150.94 0.9 150.89 0.17 150.84-0.56 151.44-1.33L151.44-1.33Q153.27-3.98 153.85-7.21 154.43-10.43 154.43-14.34L154.43-14.34 154.43-23.81Q154.43-24.9 155.09-25.35 155.76-25.8 156.79-25.47L156.79-25.47Q161.13-26.53 164.02-27.82L164.02-27.82Q165.35-28.46 166.58-27.29L166.58-27.29Q168.54-25.5 166.12-24.54L166.12-24.54Q162.43-23.24 158.18-22.38L158.18-22.38Z" transform="translate(-1.9907547235488892, 28.63652992248535)"></path></g> <!----> <!----> <!----> <!----> <!----> <!----> <!----></g></g> <g data-gra="path-slogan" fill-rule="" class="tp-slogan iconsvg-slogansvg" fill="#444444" transform="translate(5.309623718261719,36.626529693603516)"><!----> <!----> <g transform="scale(1, 1)"><g transform="scale(1)"><path d="M1.89-4.64L6.02-4.64L6.02-7.86L7.09-7.86L7.09 0L6.02 0L6.02-3.65L1.89-3.65L1.89 0L0.82 0L0.82-7.86L1.89-7.86L1.89-4.64ZM13.92 0L13.15-2.28L9.97-2.28L9.15 0L8.08 0L11.04-7.86L12.25-7.86L15.08 0L13.92 0ZM11.56-6.70L10.31-3.22L12.76-3.22L11.60-6.70L11.56-6.70ZM16.20-7.86L17.27-7.86L17.27 0L16.20 0L16.20-7.86ZM20.37-7.86L24.32-1.50L24.32-7.86L25.35-7.86L25.35 0L24.15 0L20.15-6.36L20.11-6.36L20.11 0L19.08 0L19.08-7.86L20.37-7.86ZM32.18 0L31.41-2.28L28.23-2.28L27.41 0L26.34 0L29.30-7.86L30.51-7.86L33.34 0L32.18 0ZM29.82-6.70L28.57-3.22L31.02-3.22L29.86-6.70L29.82-6.70ZM35.58-7.86L39.53-1.50L39.53-7.86L40.56-7.86L40.56 0L39.36 0L35.36-6.36L35.32-6.36L35.32 0L34.29 0L34.29-7.86L35.58-7.86ZM51.61-7.86L48.64-3.18L48.64 0L47.57 0L47.57-3.18L44.60-7.86L45.85-7.86L48.08-4.08L50.36-7.86L51.61-7.86ZM58.78-3.91L58.78-3.91Q58.61-7.00 56.03-7.18L56.03-7.18Q53.41-7.05 53.28-3.91L53.28-3.91Q53.41-0.86 56.03-0.73L56.03-0.73Q58.61-0.90 58.78-3.91ZM59.86-3.91L59.86-3.91Q59.60 0 56.03 0.13L56.03 0.13Q52.42 0 52.16-3.91L52.16-3.91Q52.38-7.99 56.03-8.08L56.03-8.08Q59.60-7.95 59.86-3.91ZM66.30-2.92L66.30-7.86L67.38-7.86L67.38-2.79Q67.25 0.04 64.15 0.13L64.15 0.13Q61.27 0.04 61.14-2.62L61.14-2.62L61.14-7.86L62.22-7.86L62.22-2.92Q62.26-0.77 64.20-0.73L64.20-0.73Q66.30-0.77 66.30-2.92L66.30-2.92ZM75.20-7.86L72.53-4.04L75.32 0L73.99 0L71.84-3.22L69.70 0L68.41 0L71.24-4.04L68.58-7.86L69.91-7.86L71.89-4.86L73.91-7.86L75.20-7.86ZM76.48-7.86L77.56-7.86L77.56 0L76.48 0L76.48-7.86ZM80.65-7.86L84.61-1.50L84.61-7.86L85.64-7.86L85.64 0L84.43 0L80.44-6.36L80.39-6.36L80.39 0L79.36 0L79.36-7.86L80.65-7.86ZM90.49-7.86L91.57-7.86L91.57 0L90.49 0L90.49-7.86ZM94.66-7.86L98.61-1.50L98.61-7.86L99.64-7.86L99.64 0L98.44 0L94.45-6.36L94.40-6.36L94.40 0L93.37 0L93.37-7.86L94.66-7.86ZM102.57-7.86L106.52-1.50L106.52-7.86L107.55-7.86L107.55 0L106.35 0L102.35-6.36L102.31-6.36L102.31 0L101.28 0L101.28-7.86L102.57-7.86ZM115.41-3.91L115.41-3.91Q115.24-7.00 112.66-7.18L112.66-7.18Q110.04-7.05 109.91-3.91L109.91-3.91Q110.04-0.86 112.66-0.73L112.66-0.73Q115.24-0.90 115.41-3.91ZM116.49-3.91L116.49-3.91Q116.23 0 112.66 0.13L112.66 0.13Q109.05 0 108.80-3.91L108.80-3.91Q109.01-7.99 112.66-8.08L112.66-8.08Q116.23-7.95 116.49-3.91ZM118.34-7.86L120.57-1.16L122.85-7.86L124.05-7.86L121.17 0L120.01 0L117.13-7.86L118.34-7.86ZM130.24 0L129.46-2.28L126.29-2.28L125.47 0L124.39 0L127.36-7.86L128.56-7.86L131.40 0L130.24 0ZM127.88-6.70L126.63-3.22L129.08-3.22L127.92-6.70L127.88-6.70ZM134.36-6.96L131.70-6.96L131.70-7.86L138.06-7.86L138.06-6.96L135.39-6.96L135.39 0L134.36 0L134.36-6.96ZM139.18-7.86L140.25-7.86L140.25 0L139.18 0L139.18-7.86ZM148.29-3.91L148.29-3.91Q148.11-7.00 145.54-7.18L145.54-7.18Q142.91-7.05 142.79-3.91L142.79-3.91Q142.91-0.86 145.54-0.73L145.54-0.73Q148.11-0.90 148.29-3.91ZM149.36-3.91L149.36-3.91Q149.10 0 145.54 0.13L145.54 0.13Q141.93 0 141.67-3.91L141.67-3.91Q141.88-7.99 145.54-8.08L145.54-8.08Q149.10-7.95 149.36-3.91ZM151.89-7.86L155.85-1.50L155.85-7.86L156.88-7.86L156.88 0L155.68 0L151.68-6.36L151.64-6.36L151.64 0L150.61 0L150.61-7.86L151.89-7.86Z" transform="translate(-0.81640625, 8.078125)"></path></g></g></g></g></g></svg>